<?xml version="1.0" standalone="no"?>
<!DOCTYPE svg PUBLIC "-//W3C//DTD SVG 20010904//EN"
 "http://www.w3.org/TR/2001/REC-SVG-20010904/DTD/svg10.dtd">
<svg version="1.0" xmlns="http://www.w3.org/2000/svg"
 width="500.000000pt" height="500.000000pt" viewBox="0 0 500.000000 500.000000"
 preserveAspectRatio="xMidYMid meet">

<g transform="translate(0.000000,500.000000) scale(0.100000,-0.100000)"
fill="#000000" stroke="none">
<path d="M0 2500 l0 -2500 2500 0 2500 0 0 2500 0 2500 -2500 0 -2500 0 0
-2500z m2420 1700 c78 -13 250 -64 303 -91 21 -11 41 -18 45 -15 18 11 197 36
329 47 161 12 351 0 493 -31 435 -95 700 -376 771 -815 12 -76 16 -84 70 -147
374 -435 355 -910 -53 -1303 -45 -45 -94 -90 -108 -100 -14 -11 -50 -58 -80
-105 -66 -102 -211 -251 -300 -308 -35 -23 -68 -43 -73 -45 -4 -1 17 -65 47
-142 67 -170 73 -205 52 -277 -32 -111 -130 -183 -246 -182 -93 1 -128 23
-265 169 -263 280 -421 363 -968 506 -248 64 -376 110 -472 167 -70 42 -155
120 -196 178 l-28 41 -138 6 c-284 14 -547 69 -746 156 -72 31 -182 105 -244
164 -300 283 -353 782 -122 1141 146 228 402 396 685 448 61 11 66 14 127 84
212 239 478 401 742 449 86 16 287 18 375 5z"/>
<path d="M2120 4040 c-264 -37 -557 -220 -739 -462 -35 -47 -50 -58 -80 -63
-367 -56 -622 -235 -734 -515 -14 -36 -27 -76 -29 -90 l-3 -25 270 -3 270 -2
350 350 350 350 130 0 130 0 219 219 219 219 -51 11 c-74 15 -227 21 -302 11z"/>
<path d="M2275 3780 l-230 -230 -130 0 -130 0 -102 -102 c-57 -57 -103 -106
-103 -110 0 -5 163 -8 363 -8 l362 0 175 175 175 175 332 0 c321 0 332 1 338
20 10 33 54 60 97 60 77 0 121 -77 84 -149 -36 -69 -145 -64 -178 9 l-13 30
-325 0 -325 0 -165 -165 -165 -165 230 -230 230 -230 495 0 495 0 135 135 135
135 78 0 79 0 -7 63 c-17 159 -61 302 -122 400 l-29 47 -169 -170 -170 -170
-243 0 -242 0 -10 -24 c-13 -34 -49 -56 -93 -56 -73 0 -122 85 -87 151 13 23
61 49 90 49 33 0 78 -31 91 -62 l11 -28 237 0 236 0 162 162 c90 90 163 168
163 174 0 7 -34 44 -75 82 -226 211 -650 284 -1111 191 l-105 -21 -59 26 c-45
20 -166 66 -174 66 -1 0 -105 -103 -231 -230z"/>
<path d="M1332 3097 c-111 -111 -202 -206 -202 -210 0 -4 209 -7 465 -7 419 0
465 2 465 16 0 26 59 74 92 74 94 0 144 -106 79 -171 -23 -22 -39 -29 -69 -29
-43 0 -87 27 -97 60 -6 19 -16 20 -218 20 l-212 0 230 -230 230 -230 450 0
450 0 125 125 125 125 210 0 210 0 317 -317 c288 -287 318 -315 334 -302 25
21 114 140 114 153 0 6 -145 156 -323 334 l-322 322 -505 0 -505 0 -235 235
-235 235 -385 0 -385 0 -203 -203z"/>
<path d="M3945 2970 l-130 -130 315 -315 c173 -173 317 -315 321 -315 3 0 17
28 31 63 100 242 41 507 -166 750 l-67 77 -87 0 -87 0 -130 -130z"/>
<path d="M514 2783 c-9 -86 7 -219 38 -309 l24 -69 295 -3 295 -2 144 -145
145 -145 175 0 175 0 132 132 133 133 -237 237 -238 238 -537 0 -536 0 -8 -67z"/>
<path d="M3142 2497 l-122 -122 118 -118 117 -117 137 0 c124 0 137 2 142 18
12 38 53 65 97 65 35 0 48 -6 71 -32 36 -41 37 -88 3 -129 -14 -17 -39 -33
-55 -37 -40 -9 -95 19 -110 56 l-12 29 -147 0 -146 0 -125 125 -125 125 -440
0 -440 0 -125 -125 -125 -125 340 0 340 0 110 -110 110 -110 125 0 125 0 155
-155 155 -155 106 0 107 0 12 30 c22 53 85 74 139 46 89 -46 54 -186 -47 -186
-43 0 -87 27 -97 60 -6 18 -16 20 -123 20 l-117 0 -155 155 -155 155 -115 0
-115 0 -95 -95 c-86 -86 -98 -95 -132 -95 -28 0 -38 -5 -43 -20 -10 -33 -54
-60 -97 -60 -102 0 -138 139 -48 185 55 29 118 9 140 -45 10 -24 18 -30 44
-30 26 0 46 14 116 85 l85 85 -105 105 -105 105 -540 0 -540 0 -145 145 -145
145 -272 0 c-150 0 -273 -3 -273 -6 0 -19 82 -123 140 -177 172 -159 452 -241
913 -269 l198 -12 31 -58 c39 -73 127 -157 206 -197 84 -42 171 -70 418 -135
374 -98 547 -166 738 -293 76 -50 139 -105 252 -220 168 -170 181 -177 235
-124 16 16 29 39 29 50 0 12 -36 112 -80 224 -44 112 -80 208 -80 213 0 6 30
23 68 38 37 15 97 48 134 72 85 57 213 193 258 275 19 35 53 79 74 99 22 19
64 57 93 84 l54 50 -318 318 -318 318 -190 0 -190 0 -123 -123z"/>
</g>
</svg>
