<?xml version="1.0" standalone="no"?>
<!DOCTYPE svg PUBLIC "-//W3C//DTD SVG 20010904//EN"
 "http://www.w3.org/TR/2001/REC-SVG-20010904/DTD/svg10.dtd">
<svg version="1.0" xmlns="http://www.w3.org/2000/svg"
 width="500.000000pt" height="500.000000pt" viewBox="0 0 500.000000 500.000000"
 preserveAspectRatio="xMidYMid meet">

<g transform="translate(0.000000,500.000000) scale(0.100000,-0.100000)"
fill="#000000" stroke="none">
<path d="M0 2500 l0 -2500 2500 0 2500 0 0 2500 0 2500 -2500 0 -2500 0 0
-2500z m2469 1270 c59 -19 72 -20 144 -11 350 47 587 -81 639 -346 9 -42 24
-75 56 -118 79 -106 97 -156 97 -265 0 -88 -3 -101 -33 -163 -22 -45 -57 -91
-101 -135 -37 -37 -84 -91 -105 -121 -36 -48 -118 -123 -147 -133 -7 -2 -2
-25 15 -68 42 -104 32 -161 -36 -196 -57 -29 -90 -15 -192 84 -114 110 -181
145 -391 202 -177 48 -262 87 -307 139 -33 39 -34 39 -141 50 -270 29 -414
106 -483 256 -115 250 26 525 307 598 45 11 65 24 104 66 50 53 159 131 211
151 119 46 249 49 363 10z m-960 -1952 c30 -101 56 -187 59 -192 3 -5 31 76
62 180 l56 189 67 3 c37 2 67 -1 67 -6 0 -8 -136 -391 -161 -454 -11 -27 -14
-28 -89 -28 -75 0 -78 1 -88 28 -28 70 -162 445 -162 453 0 5 30 9 68 9 l68 0
53 -182z m471 -63 l0 -245 -65 0 -65 0 0 245 0 245 65 0 65 0 0 -245z m221
164 l46 -80 48 80 49 81 74 0 c56 0 71 -3 66 -12 -5 -7 -41 -59 -81 -115 -40
-55 -73 -106 -73 -113 0 -6 36 -64 81 -128 l80 -117 -73 -3 c-52 -2 -75 1 -81
10 -5 7 -28 44 -52 82 l-43 69 -47 -82 -48 -81 -73 0 c-41 0 -74 3 -74 6 0 3
36 57 80 119 44 62 80 117 80 123 0 5 -34 59 -75 120 -41 61 -75 113 -75 116
0 3 33 6 73 6 l72 0 46 -81z m689 31 l0 -50 -120 0 -120 0 0 -45 0 -45 110 0
110 0 0 -50 0 -50 -110 0 -110 0 0 -50 0 -50 125 0 125 0 0 -50 0 -50 -190 0
-190 0 0 245 0 245 185 0 185 0 0 -50z m295 -125 c21 -96 40 -173 42 -171 3 2
20 73 39 158 19 84 37 161 40 171 5 15 19 17 105 17 l99 0 0 -245 0 -245 -65
0 -65 0 -1 168 -1 167 -42 -165 -42 -165 -69 0 -69 0 -42 160 -43 160 0 -162
-1 -163 -65 0 -65 0 0 245 0 245 103 0 103 0 39 -175z"/>
<path d="M2231 3719 c-94 -16 -178 -64 -266 -152 -75 -75 -83 -80 -154 -98
-91 -23 -144 -54 -200 -114 -40 -43 -80 -114 -81 -142 0 -10 31 -13 123 -13
l122 0 155 155 155 155 60 0 60 0 99 99 c54 54 94 101 90 104 -20 11 -112 15
-163 6z"/>
<path d="M2319 3604 l-104 -104 -60 0 c-60 0 -62 -1 -110 -50 l-49 -50 164 0
164 0 82 80 82 80 150 0 c115 0 153 3 159 13 22 36 83 20 83 -23 0 -37 -55
-55 -80 -25 -10 12 -41 15 -164 15 l-152 0 -72 -73 -72 -72 103 -103 102 -102
230 0 231 0 59 60 c49 50 65 60 93 60 l35 0 -7 51 c-8 57 -42 155 -58 165 -5
4 -42 -26 -82 -65 l-71 -71 -111 0 c-97 0 -111 -2 -127 -20 -30 -35 -77 -20
-77 25 0 45 47 60 77 25 15 -18 30 -20 123 -20 l106 0 74 76 75 75 -48 44
c-71 65 -138 87 -280 93 -68 2 -149 0 -191 -7 -66 -11 -78 -10 -123 8 l-50 19
-104 -104z"/>
<path d="M1890 3295 l-95 -95 213 0 c177 0 214 2 218 15 15 38 84 18 84 -25 0
-41 -54 -54 -85 -20 -16 17 -31 20 -107 20 -48 0 -88 -3 -88 -8 0 -4 46 -53
103 -110 l102 -102 200 0 201 0 59 60 59 60 96 0 95 0 146 -146 146 -145 26
35 c15 19 27 38 27 43 0 5 -64 72 -143 151 l-142 142 -230 0 -230 0 -110 110
-110 110 -170 0 -170 0 -95 -95z"/>
<path d="M3070 3235 l-55 -55 140 -140 c77 -77 143 -140 147 -140 16 0 40 113
34 158 -8 57 -45 140 -87 192 -29 36 -37 40 -79 40 -42 0 -50 -4 -100 -55z"/>
<path d="M1523 3174 c-9 -23 2 -147 16 -172 11 -21 18 -22 144 -22 l133 0 64
-65 64 -65 81 0 81 0 57 58 57 57 -113 113 -112 112 -233 0 c-202 0 -233 -2
-239 -16z"/>
<path d="M2712 3027 c-29 -29 -52 -57 -52 -63 0 -5 22 -31 48 -57 47 -46 49
-47 112 -47 54 0 67 3 78 20 22 36 72 19 72 -25 0 -45 -47 -60 -77 -25 -14 16
-30 20 -83 20 l-66 0 -54 55 -54 55 -201 0 -201 0 -54 -55 -54 -55 150 0 150
0 49 -50 c48 -49 50 -50 110 -50 l61 0 69 -70 c69 -69 70 -70 122 -70 29 0 53
4 53 10 0 19 39 31 61 20 15 -9 19 -19 17 -43 -3 -28 -7 -32 -36 -35 -22 -2
-34 2 -38 12 -5 12 -20 16 -58 16 -51 0 -53 1 -121 70 -69 70 -69 70 -125 70
-52 0 -59 -3 -95 -40 -21 -22 -48 -40 -58 -40 -10 0 -27 -10 -36 -22 -35 -43
-98 2 -71 52 14 26 56 26 72 0 19 -29 39 -25 81 18 l37 38 -53 52 -53 52 -245
0 -245 0 -64 65 -64 65 -118 0 c-85 0 -118 -3 -118 -12 0 -7 26 -37 58 -68 43
-42 73 -61 123 -78 88 -31 207 -51 301 -52 74 0 78 -1 92 -27 38 -74 95 -103
306 -161 228 -63 325 -115 433 -231 57 -62 84 -74 107 -46 10 12 5 32 -24 108
-20 51 -36 98 -36 103 0 6 19 19 42 29 50 22 130 93 160 144 12 20 40 53 62
73 l41 37 -145 145 -145 146 -85 0 -86 0 -52 -53z"/>
</g>
</svg>
